<svg width="140" height="29" viewBox="0 0 140 29" fill="none" xmlns="http://www.w3.org/2000/svg">
<path fill-rule="evenodd" clip-rule="evenodd" d="M0.529798 4.87654C0 6.15559 0 7.77706 0 11.02V17.98C0 21.223 0 22.8444 0.529798 24.1235C1.2362 25.8289 2.59113 27.1838 4.29652 27.8902C5.57557 28.42 7.19704 28.42 10.44 28.42H17.4C20.643 28.42 22.2644 28.42 23.5435 27.8902C25.2489 27.1838 26.6038 25.8289 27.3102 24.1235C27.84 22.8444 27.84 21.223 27.84 17.98V11.02C27.84 7.77706 27.84 6.15559 27.3102 4.87654C26.6038 3.17114 25.2489 1.81621 23.5435 1.10982C22.2644 0.580017 20.643 0.580017 17.4 0.580017H10.44C7.19705 0.580017 5.57557 0.580017 4.29652 1.10982C2.59113 1.81621 1.2362 3.17114 0.529798 4.87654ZM16.0557 8.20218C16.0856 8.09389 15.9594 8.0106 15.8716 8.0806L8.10221 14.2709C8.02806 14.33 8.05225 14.4483 8.14364 14.4735L12.2851 15.6163C12.3468 15.6333 12.3831 15.6972 12.366 15.7589L11.0519 20.5216C11.022 20.6299 11.1481 20.7131 11.236 20.6431L19.0053 14.4528C19.0795 14.3937 19.0553 14.2755 18.9639 14.2502L14.8225 13.1075C14.7607 13.0904 14.7245 13.0266 14.7415 12.9648L16.0557 8.20218Z" fill="#2563EB"/>
<path d="M38.5866 23V6.12727H42.1539V13.0889H49.3957V6.12727H52.9548V23H49.3957V16.0301H42.1539V23H38.5866ZM55.5401 23V10.3455H59.0497V23H55.5401ZM57.3031 8.7142C56.7813 8.7142 56.3337 8.54119 55.9602 8.19517C55.5922 7.84366 55.4082 7.42349 55.4082 6.93466C55.4082 6.45133 55.5922 6.03665 55.9602 5.69063C56.3337 5.33911 56.7813 5.16335 57.3031 5.16335C57.8249 5.16335 58.2698 5.33911 58.6378 5.69063C59.0113 6.03665 59.198 6.45133 59.198 6.93466C59.198 7.42349 59.0113 7.84366 58.6378 8.19517C58.2698 8.54119 57.8249 8.7142 57.3031 8.7142ZM61.5712 27.7455V10.3455H65.0314V12.471H65.1879C65.3417 12.1305 65.5641 11.7845 65.8552 11.433C66.1518 11.0759 66.5363 10.7794 67.0087 10.5432C67.4865 10.3015 68.0797 10.1807 68.7882 10.1807C69.7109 10.1807 70.5623 10.4223 71.3422 10.9057C72.1221 11.3835 72.7455 12.1058 73.2123 13.0724C73.6792 14.0336 73.9126 15.2392 73.9126 16.6892C73.9126 18.1008 73.6847 19.2926 73.2288 20.2648C72.7784 21.2314 72.1633 21.9647 71.3834 22.4645C70.6089 22.9588 69.7411 23.206 68.78 23.206C68.0989 23.206 67.5194 23.0934 67.0416 22.8682C66.5693 22.643 66.182 22.3601 65.88 22.0196C65.5779 21.6736 65.3472 21.3248 65.1879 20.9733H65.0808V27.7455H61.5712ZM65.0067 16.6727C65.0067 17.4252 65.111 18.0815 65.3197 18.6418C65.5284 19.202 65.8305 19.6386 66.226 19.9517C66.6214 20.2593 67.102 20.4131 67.6677 20.4131C68.239 20.4131 68.7223 20.2565 69.1177 19.9435C69.5132 19.6249 69.8125 19.1855 70.0158 18.6253C70.2245 18.0596 70.3288 17.4087 70.3288 16.6727C70.3288 15.9422 70.2272 15.2996 70.024 14.7449C69.8208 14.1902 69.5214 13.7563 69.126 13.4432C68.7305 13.1301 68.2444 12.9736 67.6677 12.9736C67.0965 12.9736 66.6132 13.1246 66.2177 13.4267C65.8278 13.7288 65.5284 14.1572 65.3197 14.7119C65.111 15.2667 65.0067 15.9203 65.0067 16.6727ZM79.4721 15.6841V23H75.9624V6.12727H79.3732V12.5781H79.5215C79.8071 11.8312 80.2685 11.2462 80.9056 10.8233C81.5427 10.3949 82.3419 10.1807 83.303 10.1807C84.1818 10.1807 84.948 10.3729 85.6016 10.7574C86.2607 11.1364 86.7715 11.6829 87.134 12.3969C87.502 13.1054 87.6832 13.954 87.6777 14.9426V23H84.1681V15.5688C84.1736 14.7888 83.9758 14.1819 83.5749 13.748C83.1794 13.3141 82.6247 13.0972 81.9107 13.0972C81.4329 13.0972 81.0099 13.1988 80.6419 13.402C80.2794 13.6052 79.9938 13.9018 79.7851 14.2918C79.5819 14.6762 79.4776 15.1403 79.4721 15.6841ZM95.8674 23.2472C94.5876 23.2472 93.4809 22.9753 92.5472 22.4315C91.619 21.8823 90.9022 21.1188 90.3969 20.1412C89.8916 19.158 89.6389 18.0184 89.6389 16.7222C89.6389 15.415 89.8916 14.2725 90.3969 13.2949C90.9022 12.3117 91.619 11.5483 92.5472 11.0045C93.4809 10.4553 94.5876 10.1807 95.8674 10.1807C97.1471 10.1807 98.2511 10.4553 99.1793 11.0045C100.113 11.5483 100.833 12.3117 101.338 13.2949C101.843 14.2725 102.096 15.415 102.096 16.7222C102.096 18.0184 101.843 19.158 101.338 20.1412C100.833 21.1188 100.113 21.8823 99.1793 22.4315C98.2511 22.9753 97.1471 23.2472 95.8674 23.2472ZM95.8838 20.5284C96.466 20.5284 96.9521 20.3636 97.3421 20.0341C97.732 19.6991 98.0259 19.2432 98.2236 18.6665C98.4268 18.0898 98.5284 17.4334 98.5284 16.6974C98.5284 15.9615 98.4268 15.3051 98.2236 14.7284C98.0259 14.1517 97.732 13.6958 97.3421 13.3608C96.9521 13.0258 96.466 12.8582 95.8838 12.8582C95.2961 12.8582 94.8018 13.0258 94.4009 13.3608C94.0054 13.6958 93.7061 14.1517 93.5029 14.7284C93.3051 15.3051 93.2063 15.9615 93.2063 16.6974C93.2063 17.4334 93.3051 18.0898 93.5029 18.6665C93.7061 19.2432 94.0054 19.6991 94.4009 20.0341C94.8018 20.3636 95.2961 20.5284 95.8838 20.5284ZM107.598 15.6841V23H104.088V10.3455H107.433V12.5781H107.581C107.861 11.8421 108.331 11.2599 108.99 10.8315C109.649 10.3976 110.448 10.1807 111.387 10.1807C112.266 10.1807 113.032 10.3729 113.686 10.7574C114.339 11.1419 114.848 11.6911 115.21 12.4051C115.573 13.1136 115.754 13.9595 115.754 14.9426V23H112.244V15.5688C112.25 14.7943 112.052 14.1902 111.651 13.7563C111.25 13.3169 110.698 13.0972 109.995 13.0972C109.523 13.0972 109.105 13.1988 108.743 13.402C108.386 13.6052 108.106 13.9018 107.902 14.2918C107.705 14.6762 107.603 15.1403 107.598 15.6841ZM118.23 23V10.3455H121.74V23H118.23ZM119.993 8.7142C119.471 8.7142 119.024 8.54119 118.65 8.19517C118.282 7.84366 118.098 7.42349 118.098 6.93466C118.098 6.45133 118.282 6.03665 118.65 5.69063C119.024 5.33911 119.471 5.16335 119.993 5.16335C120.515 5.16335 120.96 5.33911 121.328 5.69063C121.701 6.03665 121.888 6.45133 121.888 6.93466C121.888 7.42349 121.701 7.84366 121.328 8.19517C120.96 8.54119 120.515 8.7142 119.993 8.7142ZM129.979 23.2472C128.682 23.2472 127.567 22.9725 126.634 22.4233C125.706 21.8686 124.991 21.0996 124.492 20.1165C123.997 19.1333 123.75 18.0019 123.75 16.7222C123.75 15.4259 124 14.289 124.5 13.3114C125.005 12.3282 125.722 11.562 126.65 11.0128C127.578 10.458 128.682 10.1807 129.962 10.1807C131.066 10.1807 132.033 10.3812 132.862 10.7821C133.691 11.183 134.348 11.746 134.831 12.471C135.314 13.196 135.581 14.0473 135.63 15.025H132.318C132.225 14.3934 131.978 13.8853 131.577 13.5009C131.181 13.1109 130.662 12.9159 130.02 12.9159C129.476 12.9159 129.001 13.0642 128.595 13.3608C128.194 13.6519 127.881 14.0776 127.655 14.6378C127.43 15.198 127.318 15.8763 127.318 16.6727C127.318 17.4801 127.427 18.1667 127.647 18.7324C127.872 19.2981 128.188 19.7293 128.595 20.0259C129.001 20.3224 129.476 20.4707 130.02 20.4707C130.421 20.4707 130.781 20.3884 131.099 20.2236C131.423 20.0588 131.689 19.8199 131.898 19.5068C132.112 19.1883 132.252 18.8065 132.318 18.3616H135.63C135.575 19.3283 135.312 20.1796 134.839 20.9156C134.373 21.6461 133.727 22.2173 132.903 22.6293C132.079 23.0412 131.105 23.2472 129.979 23.2472Z" fill="#0F172A"/>
</svg>
